<?xml version="1.0" encoding="UTF-8"?>
<svg id="a" data-name="Layer 1" xmlns="http://www.w3.org/2000/svg" viewBox="0 0 24 24">
  <path d="M17.12,2.25v15.09c0,.19-.15.34-.34.34h-1.46c-.1,0-.21-.05-.27-.13l-5.92-7.64v13.74c0,.19-.15.34-.34.34H.34c-.19,0-.34-.15-.34-.34V.34c0-.19.15-.34.34-.34h10.4c.19,0,.34.15.34.34v1.56c0,.19-.15.34-.34.34H2.25v19.51h4.63V6.66c0-.19.15-.34.34-.34h1.65c.1,0,.21.05.27.13l5.74,7.4V.34c0-.19.15-.34.34-.34h8.44c.19,0,.34.15.34.34v23.31c0,.19-.15.34-.34.34h-10.41c-.19,0-.34-.15-.34-.34v-1.56c0-.19.15-.34.34-.34h8.51V2.25h-4.64Z" style="fill-rule: evenodd; stroke-width: 0px;"/>
</svg>